<svg width="17" height="22" viewBox="0 0 17 22" fill="none" xmlns="http://www.w3.org/2000/svg">
<path d="M1.37821 18.3176C1.05398 18.3176 0.780286 18.2061 0.557132 17.9831C0.334148 17.7599 0.222656 17.4862 0.222656 17.162C0.222656 16.8378 0.334148 16.5641 0.557132 16.3409C0.780286 16.1179 1.05398 16.0064 1.37821 16.0064H2.18151V9.10181C2.18151 7.64387 2.61597 6.34355 3.48488 5.20086C4.35362 4.05817 5.48953 3.31151 6.89262 2.96086V2.29826C6.89262 1.83451 7.05389 1.44128 7.37643 1.11857C7.69914 0.796035 8.09237 0.634766 8.55612 0.634766C9.01986 0.634766 9.41309 0.796035 9.7358 1.11857C10.0583 1.44128 10.2196 1.83451 10.2196 2.29826V2.96086C11.6268 3.31151 12.7637 4.05716 13.6304 5.19781C14.4973 6.33847 14.9307 7.6398 14.9307 9.10181V16.0064H15.734C16.0583 16.0064 16.3319 16.1179 16.5551 16.3409C16.7781 16.5641 16.8896 16.8378 16.8896 17.162C16.8896 17.4862 16.7781 17.7599 16.5551 17.9831C16.3319 18.2061 16.0583 18.3176 15.734 18.3176H1.37821ZM8.56221 21.432C7.98316 21.432 7.48767 21.2269 7.07574 20.8169C6.66363 20.407 6.45758 19.9125 6.45758 19.3334H10.6608C10.6608 19.9125 10.4557 20.407 10.0456 20.8169C9.63557 21.2269 9.14109 21.432 8.56221 21.432Z" fill="#B7B1AA"/>
</svg>
